<svg xmlns="http://www.w3.org/2000/svg" width="183.328" height="99.087" viewBox="0 0 183.328 99.087">
  <path id="path170" d="M171.1-3081.767c-2.355-18.258-6.027-36.4-12-53.517-4.9-14.037-11.636-30.881-24.263-37.2-12.566-6.291-26.609,1.631-33.978,14.195-8.992,15.338-8.156,35.583-6.017,53.167.186,1.535,2.9,3.01,2.656.71-1.627-15.326-2.036-34.724,4.435-48.708,5.133-11.1,16.805-19.611,27.908-18.023,12.69,1.824,19.881,20.018,24.335,32.25.1.272,9.894,32.045,12.243,47.917,4.2,28.334,6.217,65.684-16.18,84.882a28.182,28.182,0,0,1-33.4,2.029c-9.811-6.591-16.781-19.1-21.394-30.928-12.784-32.766-14.477-71.729-7.275-106.614.339-1.643-2.472-4.3-2.919-2.419a188.966,188.966,0,0,0,4.935,103.377c8.5,24.976,28.84,55.033,54.783,43.692,11.706-5.123,20.687-17.583,24.719-31.279,5.047-17.144,3.689-35.926,1.419-53.527" transform="matrix(0.035, 0.999, -0.999, 0.035, -2995.472, 30.561)" fill="#fa5c3c"/>
</svg>
