<svg width="512" height="512" viewBox="0 0 512 512" fill="none" xmlns="http://www.w3.org/2000/svg">
<g clip-path="url(#clip0_2_26)">
<path d="M256 512C397.385 512 512 397.385 512 256C512 114.615 397.385 0 256 0C114.615 0 0 114.615 0 256C0 397.385 114.615 512 256 512Z" fill="#90DFAA"/>
<path d="M257.209 366.06C256.806 366.06 256.403 366.463 255.597 366.463C255.194 366.463 254.791 366.06 253.984 366.06H257.209Z" fill="#E6E9EE"/>
<path d="M462.009 407.181C415.647 470.476 340.258 512 255.597 512C170.935 512 95.9496 470.879 49.1842 407.181C85.4677 368.479 134.652 347.918 175.773 337.436C172.145 366.866 187.465 406.375 187.868 405.165C203.187 369.688 255.194 366.463 255.194 366.463C255.194 366.463 307.2 369.285 322.923 405.165C323.326 405.972 338.646 366.866 335.017 337.436C376.542 347.918 425.726 368.479 462.009 407.181Z" fill="#E6E9EE"/>
<path d="M319.294 310.425C319.294 315.666 316.069 343.483 257.209 366.06H253.984C195.124 343.483 191.899 315.666 191.899 310.425C192.302 299.943 194.721 289.461 199.156 279.786C215.282 297.928 234.633 310.022 255.597 310.022C276.157 310.022 295.912 298.331 312.038 279.786C316.472 289.461 319.294 299.943 319.294 310.425Z" fill="#FFD05B"/>
<path d="M290.671 375.332L277.77 401.134H233.424L220.523 375.332C238.261 367.672 255.597 366.463 255.597 366.463C255.597 366.463 273.335 367.672 290.671 375.332Z" fill="#F1543F"/>
<path d="M219.717 509.581C231.408 511.194 243.502 512 256 512C268.094 512 280.189 511.194 292.283 509.581L278.173 401.537H233.827L219.717 509.581Z" fill="#FF7058"/>
<path d="M319.294 309.619C319.294 309.619 322.117 341.871 255.597 366.463C255.597 366.463 307.603 369.285 323.326 405.165C323.729 406.778 353.965 328.567 319.294 309.619Z" fill="white"/>
<path d="M191.899 309.619C157.631 328.567 187.465 406.375 188.271 405.165C203.591 369.688 256 366.463 256 366.463C189.077 341.871 191.899 309.619 191.899 309.619Z" fill="white"/>
<path d="M315.263 287.849C298.331 305.991 278.173 317.682 255.597 317.682C233.02 317.682 212.863 305.991 195.931 287.849C196.737 285.027 197.946 282.205 199.156 279.786C215.282 297.928 234.633 310.022 255.597 310.022C276.561 310.022 295.912 298.331 312.038 279.786C313.247 282.205 314.457 285.027 315.263 287.849Z" fill="#F9B54C"/>
<path d="M365.657 226.167C357.191 240.277 344.29 248.743 334.614 247.131C315.263 283.011 287.043 309.619 255.597 309.619C224.151 309.619 195.931 282.608 176.58 247.131C166.904 248.34 154.003 240.277 145.537 226.167C135.458 209.638 135.055 191.496 144.731 185.449C147.15 184.239 149.568 183.433 152.391 183.836C158.841 200.365 167.71 210.444 167.71 210.444C158.438 159.244 196.334 153.6 189.883 104.416C189.883 104.416 213.669 157.228 281.802 120.139L276.561 130.217C371.704 108.85 339.855 220.926 339.049 223.748C349.934 210.041 356.787 196.334 360.819 183.836C362.431 183.836 364.447 184.643 365.657 185.449C376.139 191.093 375.735 209.638 365.657 226.167Z" fill="#FFD05B"/>
<path d="M310.425 51.2C318.085 50.3937 330.583 57.2472 330.583 57.2472C296.315 18.1417 240.277 43.137 240.277 43.137C259.225 27.011 276.157 28.6236 276.157 28.6236C195.931 16.5291 182.224 64.5039 182.224 64.5039C178.595 58.8598 178.595 50.7969 178.998 46.7654C173.354 56.4409 179.402 75.7921 179.402 75.7921C173.757 61.6819 154.003 64.1008 154.003 64.1008C170.935 66.9228 173.757 77.4047 173.757 77.4047C131.427 93.1276 138.683 137.071 138.683 137.071L148.762 124.976C136.265 172.951 168.113 210.041 168.113 210.041C158.841 158.841 196.737 153.197 190.287 104.013C190.287 104.013 214.072 156.825 282.205 119.735L276.964 129.814C373.317 108.044 339.452 223.748 339.452 223.748C373.72 180.208 368.479 135.458 368.479 135.458L372.51 151.584C383.395 79.0173 310.425 51.2 310.425 51.2Z" fill="#324A5E"/>
</g>
<defs>
<clipPath id="clip0_2_26">
<rect width="512" height="512" fill="white"/>
</clipPath>
</defs>
</svg>
