<svg width="512" height="512" viewBox="0 0 512 512" fill="none" xmlns="http://www.w3.org/2000/svg">
<path d="M234.667 85.3333V426.667C234.667 443.641 227.924 459.919 215.922 471.922C203.919 483.924 187.641 490.667 170.667 490.667H85.3333C68.3595 490.667 52.0808 483.924 40.0785 471.922C28.0762 459.919 21.3333 443.641 21.3333 426.667V85.3333C21.3333 68.3595 28.0762 52.0808 40.0785 40.0785C52.0808 28.0762 68.3595 21.3333 85.3333 21.3333H170.667C187.641 21.3333 203.919 28.0762 215.922 40.0785C227.924 52.0808 234.667 68.3595 234.667 85.3333ZM426.667 21.3333H341.333C324.359 21.3333 308.081 28.0762 296.079 40.0785C284.076 52.0808 277.333 68.3595 277.333 85.3333V426.667C277.333 443.641 284.076 459.919 296.079 471.922C308.081 483.924 324.359 490.667 341.333 490.667H426.667C443.641 490.667 459.919 483.924 471.922 471.922C483.924 459.919 490.667 443.641 490.667 426.667V85.3333C490.667 68.3595 483.924 52.0808 471.922 40.0785C459.919 28.0762 443.641 21.3333 426.667 21.3333Z" fill="black"/>
</svg>
