<svg width="512" height="512" viewBox="0 0 512 512" fill="none" xmlns="http://www.w3.org/2000/svg">
<g clip-path="url(#clip0_2_6)">
<path d="M78.3208 60.4214H78.2777C75.8929 60.4162 73.5307 60.8836 71.3275 61.7964C69.1243 62.7092 67.1238 64.0494 65.4414 65.7396C63.7262 67.442 62.3662 69.4681 61.4405 71.7003C60.5148 73.9326 60.0418 76.3265 60.049 78.7431V353.474C60.049 363.549 68.2772 371.765 78.3932 371.791C121.039 371.893 192.489 380.781 241.779 432.362V144.848C241.779 141.433 240.906 138.225 239.26 135.57C198.805 70.4201 121.063 60.5214 78.3208 60.4214ZM451.953 353.474V78.7414C451.953 73.8248 450.037 69.2064 446.56 65.7379C444.878 64.0481 442.878 62.7082 440.675 61.7954C438.472 60.8826 436.11 60.415 433.726 60.4197H433.681C390.94 60.5214 313.199 70.4201 272.742 135.57C271.095 138.225 270.225 141.433 270.225 144.848V432.36C319.515 380.779 390.964 371.891 433.61 371.789C443.724 371.763 451.953 363.547 451.953 353.474Z" fill="black"/>
<path d="M493.682 123.779H480.397V353.474C480.397 379.197 459.44 400.172 433.678 400.235C397.505 400.322 337.861 407.395 295.62 447.374C368.676 429.487 445.69 441.115 489.581 451.117C492.269 451.737 495.063 451.74 497.754 451.127C500.444 450.514 502.96 449.3 505.115 447.576C507.268 445.865 509.006 443.689 510.199 441.21C511.391 438.732 512.007 436.016 512 433.266V142.097C512.002 131.996 503.782 123.779 493.682 123.779ZM31.6027 353.474V123.779H18.3183C8.21961 123.779 0 131.996 0 142.097V433.26C0 438.863 2.51002 444.08 6.8853 447.571C9.03909 449.296 11.5556 450.51 14.2461 451.124C16.9365 451.737 19.7309 451.733 22.4195 451.111C66.3103 441.108 143.326 429.482 216.378 447.369C174.139 407.391 114.495 400.32 78.3225 400.234C52.5621 400.172 31.6027 379.197 31.6027 353.474Z" fill="black"/>
</g>
<defs>
<clipPath id="clip0_2_6">
<rect width="512" height="512" fill="white"/>
</clipPath>
</defs>
</svg>
