<svg width="512" height="512" viewBox="0 0 512 512" fill="none" xmlns="http://www.w3.org/2000/svg">
<g clip-path="url(#clip0_2_20)">
<path fill-rule="evenodd" clip-rule="evenodd" d="M256 0C397.385 0 512 114.615 512 256C512 397.385 397.385 512 256 512C114.615 512 0 397.385 0 256C0 114.615 114.615 0 256 0ZM273.668 376.739H324.822C344.368 376.739 360.268 360.841 360.268 341.295V302.044C360.268 295.618 355.056 290.405 348.63 290.405C342.202 290.405 336.994 295.616 336.994 302.044V341.295C336.994 348.007 331.532 353.464 324.821 353.464H273.667V197.945C273.667 184.959 267.19 173.749 255.945 167.256L185.838 126.773H324.821C331.532 126.773 336.994 132.234 336.994 138.945V183.721C336.994 190.145 342.204 195.36 348.63 195.36C355.053 195.36 360.268 190.145 360.268 183.721V138.945C360.268 119.399 344.367 103.501 324.822 103.501H166.212C146.667 103.501 130.769 119.4 130.769 138.945V351.357C130.769 364.347 137.241 375.558 148.491 382.052L220.508 423.631C225.925 426.758 231.962 428.505 238.231 428.501C244.494 428.498 250.534 426.755 255.946 423.631C267.195 417.138 273.668 405.924 273.668 392.936V376.739ZM381.504 251.755L368.687 264.571C364.143 269.115 364.144 276.482 368.687 281.028C369.767 282.109 371.05 282.966 372.462 283.551C373.874 284.135 375.388 284.434 376.916 284.432C378.445 284.435 379.959 284.136 381.372 283.552C382.785 282.968 384.068 282.11 385.148 281.028L417.825 248.345C422.368 243.801 422.368 236.439 417.825 231.895L385.148 199.217C380.603 194.672 373.235 194.674 368.689 199.217C364.146 203.757 364.147 211.127 368.689 215.668L381.505 228.481H295.647C289.217 228.481 284.011 233.691 284.011 240.12C284.011 246.549 289.218 251.756 295.647 251.756L381.504 251.755Z" fill="black"/>
</g>
<defs>
<clipPath id="clip0_2_20">
<rect width="512" height="512" fill="white"/>
</clipPath>
</defs>
</svg>
