<svg width="512" height="512" viewBox="0 0 512 512" fill="none" xmlns="http://www.w3.org/2000/svg">
<g clip-path="url(#clip0_2_17)">
<path d="M483.832 28.1641C465.062 9.38921 442.447 7.62939e-06 416.005 7.62939e-06H96.0029C69.5609 7.62939e-06 46.946 9.38921 28.1676 28.1641C9.39271 46.9425 0.00350952 69.5562 0.00350952 95.9994V415.998C0.00350952 442.439 9.39271 465.055 28.1676 483.834C46.946 502.612 69.5609 512.001 96.0029 512.001H416.002C442.444 512.001 465.059 502.612 483.829 483.834C502.607 465.055 511.996 442.44 511.996 415.998V95.9994C511.995 69.5562 502.606 46.939 483.832 28.1641Z" fill="#FFC1F8"/>
</g>
<defs>
<clipPath id="clip0_2_17">
<rect width="512" height="512" fill="white"/>
</clipPath>
</defs>
</svg>
