<svg width="512" height="512" viewBox="0 0 512 512" fill="none" xmlns="http://www.w3.org/2000/svg">
<path d="M330 150C310.701 150 295 134.299 295 115V0H116C85.673 0 61 24.673 61 55V457C61 487.327 85.673 512 116 512H396C426.327 512 451 487.327 451 457V150H330ZM143 360H215.72C224.004 360 230.72 366.716 230.72 375C230.72 383.284 224.004 390 215.72 390H143C134.716 390 128 383.284 128 375C128 366.716 134.716 360 143 360ZM128 295C128 286.716 134.716 280 143 280H363C371.284 280 378 286.716 378 295C378 303.284 371.284 310 363 310H143C134.716 310 128 303.284 128 295ZM363 200C371.284 200 378 206.716 378 215C378 223.284 371.284 230 363 230H143C134.716 230 128 223.284 128 215C128 206.716 134.716 200 143 200H363Z" fill="black"/>
<path d="M325 115C325 117.757 327.243 120 330 120H444.314C441.557 114.896 438.008 110.261 433.799 106.268L337.376 15.046C333.678 11.5472 329.514 8.57727 325.001 6.221V115H325Z" fill="black"/>
</svg>
