<svg width="512" height="512" viewBox="0 0 512 512" fill="none" xmlns="http://www.w3.org/2000/svg">
<path d="M467.36 189.44C458.024 188.084 449.114 184.639 441.293 179.362C433.473 174.085 426.944 167.112 422.192 158.961C417.44 150.811 414.589 141.694 413.849 132.289C413.109 122.884 414.501 113.433 417.92 104.64C420.094 98.8916 420.414 92.6071 418.836 86.6676C417.257 80.7281 413.86 75.4314 409.12 71.52C388.192 53.9466 364.372 40.1415 338.72 30.72C332.879 28.5501 326.502 28.279 320.497 29.9453C314.493 31.6116 309.168 35.1302 305.28 40C299.428 47.4824 291.95 53.5342 283.411 57.6962C274.873 61.8582 265.499 64.0212 256 64.0212C246.501 64.0212 237.127 61.8582 228.589 57.6962C220.05 53.5342 212.572 47.4824 206.72 40C202.832 35.1302 197.507 31.6116 191.503 29.9453C185.498 28.279 179.121 28.5501 173.28 30.72C149.595 39.4183 127.449 51.8412 107.68 67.52C102.697 71.465 99.1073 76.9019 97.4374 83.0344C95.7675 89.167 96.1048 95.673 98.4 101.6C102.092 110.625 103.618 120.391 102.854 130.112C102.09 139.833 99.0591 149.241 94.0032 157.579C88.9473 165.917 82.0076 172.955 73.7407 178.126C65.4738 183.298 56.1098 186.461 46.4 187.36C40.0961 188.034 34.1752 190.714 29.509 195.006C24.8427 199.298 21.6778 204.974 20.48 211.2C17.5008 225.947 16 240.955 16 256C15.9781 268.596 16.9949 281.172 19.04 293.6C20.0578 300.025 23.1639 305.936 27.8781 310.419C32.5922 314.902 38.6518 317.707 45.12 318.4C55.0431 319.331 64.5988 322.626 72.9873 328.008C81.3757 333.39 88.3529 340.704 93.3349 349.336C98.3168 357.968 101.159 367.668 101.622 377.624C102.086 387.58 100.158 397.502 96 406.56C93.2788 412.452 92.6039 419.084 94.0822 425.403C95.5606 431.722 99.1075 437.367 104.16 441.44C124.962 458.694 148.553 472.275 173.92 481.6C177.164 482.724 180.567 483.318 184 483.36C188.707 483.35 193.342 482.211 197.518 480.04C201.694 477.868 205.289 474.727 208 470.88C213.703 462.571 221.347 455.78 230.269 451.096C239.192 446.412 249.123 443.976 259.2 444C268.964 444.012 278.59 446.304 287.312 450.693C296.035 455.082 303.611 461.446 309.44 469.28C313.317 474.491 318.809 478.274 325.059 480.04C331.31 481.805 337.97 481.454 344 479.04C367.195 469.705 388.789 456.803 408 440.8C412.826 436.81 416.262 431.392 417.815 425.326C419.367 419.26 418.956 412.858 416.64 407.04C412.877 398.131 411.236 388.469 411.847 378.817C412.458 369.165 415.304 359.787 420.161 351.424C425.018 343.06 431.752 335.94 439.832 330.626C447.912 325.311 457.117 321.947 466.72 320.8C472.947 319.939 478.738 317.118 483.255 312.745C487.771 308.373 490.778 302.676 491.84 296.48C494.41 283.135 495.802 269.589 496 256C496.003 241.666 494.664 227.364 492 213.28C490.92 207.221 487.957 201.656 483.534 197.376C479.111 193.097 473.452 190.32 467.36 189.44ZM336 256C336 271.823 331.308 287.29 322.518 300.446C313.727 313.602 301.233 323.855 286.615 329.91C271.997 335.965 255.911 337.55 240.393 334.463C224.874 331.376 210.62 323.757 199.431 312.569C188.243 301.38 180.624 287.126 177.537 271.607C174.45 256.089 176.035 240.003 182.09 225.385C188.145 210.767 198.398 198.273 211.554 189.482C224.71 180.692 240.177 176 256 176C277.217 176 297.566 184.429 312.569 199.431C327.571 214.434 336 234.783 336 256Z" fill="black"/>
</svg>
