<svg width="512" height="512" viewBox="0 0 512 512" fill="none" xmlns="http://www.w3.org/2000/svg">
<path d="M256 21.3333C209.587 21.3333 164.217 35.0963 125.626 60.8818C87.0354 86.6673 56.9576 123.317 39.1963 166.197C21.4349 209.077 16.7877 256.26 25.8424 301.781C34.897 347.302 57.2469 389.116 90.0656 421.934C122.884 454.753 164.698 477.103 210.219 486.158C255.74 495.212 302.923 490.565 345.803 472.804C388.683 455.042 425.333 424.965 451.118 386.374C476.904 347.783 490.667 302.413 490.667 256C490.593 193.785 465.846 134.139 421.853 90.1467C377.861 46.154 318.215 21.4067 256 21.3333ZM335.083 335.083C331.082 339.082 325.657 341.329 320 341.329C314.343 341.329 308.918 339.082 304.917 335.083L240.917 271.083C236.916 267.083 234.668 261.657 234.667 256V128C234.667 122.342 236.914 116.916 240.915 112.915C244.916 108.914 250.342 106.667 256 106.667C261.658 106.667 267.084 108.914 271.085 112.915C275.086 116.916 277.333 122.342 277.333 128V247.168L335.083 304.917C339.082 308.918 341.329 314.343 341.329 320C341.329 325.657 339.082 331.082 335.083 335.083Z" fill="black"/>
</svg>
